<svg xmlns="http://www.w3.org/2000/svg" width="1024" height="512" viewBox="0 0 1024 512">
  <defs>
    <filter id="softShadow" x="-30%" y="-30%" width="160%" height="170%">
      <feDropShadow dx="0" dy="7" stdDeviation="5" flood-color="#1c6f9a" flood-opacity=".28"/>
    </filter>
    <linearGradient id="shine" x1="0" y1="0" x2="1" y2="1">
      <stop offset="0" stop-color="#ffffff" stop-opacity=".70"/>
      <stop offset=".48" stop-color="#ffffff" stop-opacity=".10"/>
      <stop offset="1" stop-color="#1b6f9e" stop-opacity=".24"/>
    </linearGradient>
    <radialGradient id="orb" cx=".36" cy=".28" r=".78">
      <stop offset="0" stop-color="#ffffff"/>
      <stop offset=".20" stop-color="#9cedff"/>
      <stop offset=".45" stop-color="#23a8f0"/>
      <stop offset=".72" stop-color="#5fd45f"/>
      <stop offset="1" stop-color="#1260b8"/>
    </radialGradient>

    <symbol id="download" viewBox="0 0 24 24">
      <path d="M12 3v11M7 10l5 5 5-5M5 20h14" fill="none" stroke="currentColor" stroke-width="2.7" stroke-linecap="round" stroke-linejoin="round"/>
    </symbol>
    <symbol id="code" viewBox="0 0 24 24">
      <path d="M8 6 2.5 12 8 18M16 6l5.5 6L16 18" fill="none" stroke="currentColor" stroke-width="2.7" stroke-linecap="round" stroke-linejoin="round"/>
    </symbol>
    <symbol id="send" viewBox="0 0 24 24">
      <path d="M22 2 2.8 10.3l8.1 3.1 3.1 7.8L22 2Z" fill="none" stroke="currentColor" stroke-width="2.2" stroke-linecap="round" stroke-linejoin="round"/>
      <path d="m10.9 13.4 4.9-4.9" fill="none" stroke="currentColor" stroke-width="2.2" stroke-linecap="round"/>
    </symbol>
    <symbol id="file" viewBox="0 0 24 24">
      <path d="M7 3h7l4 4v14H7z" fill="none" stroke="currentColor" stroke-width="2.2" stroke-linejoin="round"/>
      <path d="M14 3v5h5M10 12h6M10 16h6" fill="none" stroke="currentColor" stroke-width="2.2" stroke-linecap="round"/>
    </symbol>
    <symbol id="play" viewBox="0 0 24 24">
      <path d="M8 5.5v13l11-6.5z" fill="currentColor"/>
    </symbol>
    <symbol id="message" viewBox="0 0 24 24">
      <path d="M4 5h16v11H9l-5 4z" fill="none" stroke="currentColor" stroke-width="2.2" stroke-linejoin="round"/>
      <path d="M8 10h.1M12 10h.1M16 10h.1" fill="none" stroke="currentColor" stroke-width="3.2" stroke-linecap="round"/>
    </symbol>
    <symbol id="globe" viewBox="0 0 24 24">
      <circle cx="12" cy="12" r="9" fill="none" stroke="currentColor" stroke-width="2.2"/>
      <path d="M3 12h18M12 3c2.5 2.8 3.7 5.8 3.7 9s-1.2 6.2-3.7 9M12 3C9.5 5.8 8.3 8.8 8.3 12s1.2 6.2 3.7 9" fill="none" stroke="currentColor" stroke-width="2.1" stroke-linecap="round"/>
    </symbol>
    <symbol id="refresh" viewBox="0 0 24 24">
      <path d="M20 8a8 8 0 0 0-13.7-3L4 7M4 4v3h3M4 16a8 8 0 0 0 13.7 3L20 17m0 3v-3h-3" fill="none" stroke="currentColor" stroke-width="2.4" stroke-linecap="round" stroke-linejoin="round"/>
    </symbol>
    <symbol id="save" viewBox="0 0 24 24">
      <path d="M5 3h12l2 2v16H5zM8 3v6h8V3M8 18h8" fill="none" stroke="currentColor" stroke-width="2.2" stroke-linecap="round" stroke-linejoin="round"/>
    </symbol>
    <symbol id="calendar" viewBox="0 0 24 24">
      <path d="M5 5h14v15H5zM5 9h14M8 3v4M16 3v4M8.5 13h2M13.5 13h2M8.5 17h2M13.5 17h2" fill="none" stroke="currentColor" stroke-width="2.1" stroke-linecap="round" stroke-linejoin="round"/>
    </symbol>
    <symbol id="bars" viewBox="0 0 24 24">
      <path d="M5 19V12M12 19V8M19 19V5" fill="none" stroke="currentColor" stroke-width="4" stroke-linecap="round"/>
    </symbol>
    <symbol id="pencil" viewBox="0 0 24 24">
      <path d="M4 20l4.2-1 11-11a2.1 2.1 0 0 0-3-3l-11 11zM14.8 6.2l3 3" fill="none" stroke="currentColor" stroke-width="2.2" stroke-linecap="round" stroke-linejoin="round"/>
    </symbol>
    <symbol id="search" viewBox="0 0 24 24">
      <circle cx="10.5" cy="10.5" r="6.5" fill="none" stroke="currentColor" stroke-width="2.6"/>
      <path d="m15.5 15.5 5 5" fill="none" stroke="currentColor" stroke-width="3" stroke-linecap="round"/>
    </symbol>
    <symbol id="title" viewBox="0 0 24 24">
      <path d="M4 5h16M12 5v14" fill="none" stroke="currentColor" stroke-width="3.1" stroke-linecap="round"/>
    </symbol>
    <symbol id="x" viewBox="0 0 24 24">
      <path d="M6 6l12 12M18 6 6 18" fill="none" stroke="currentColor" stroke-width="3" stroke-linecap="round"/>
    </symbol>
    <symbol id="bookmark" viewBox="0 0 24 24">
      <path d="M7 4h10v17l-5-3.3L7 21zM7 8h10M7 12h10" fill="none" stroke="currentColor" stroke-width="2.2" stroke-linecap="round" stroke-linejoin="round"/>
    </symbol>
  </defs>

  <g id="app-logo" transform="translate(0 0)" filter="url(#softShadow)">
    <circle cx="62" cy="62" r="44" fill="#1165b8"/>
    <circle cx="62" cy="62" r="42" fill="url(#orb)"/>
    <path d="M23 71c13 23 40 32 64 21 7-3 13-8 18-14-18 11-39 10-58-1-10-6-17-10-24-6Z" fill="#2fc35c" opacity=".82"/>
    <path d="M29 82c23 15 52 17 75-5-12 27-55 39-80 12Z" fill="#0c6ec7" opacity=".58"/>
    <ellipse cx="43" cy="36" rx="20" ry="15" fill="#fff" opacity=".70" transform="rotate(-28 43 36)"/>
    <circle cx="62" cy="62" r="42" fill="none" stroke="#ffffff" stroke-opacity=".82" stroke-width="3"/>
  </g>

  <g transform="translate(128 0)" filter="url(#softShadow)">
    <rect x="22" y="34" width="72" height="62" rx="11" fill="#b6e9ff" stroke="#ffffff" stroke-opacity=".85" stroke-width="3" transform="rotate(-15 58 65)"/>
    <rect x="29" y="27" width="74" height="64" rx="11" fill="#e4fbff" stroke="#8bd5ff" stroke-opacity=".75" stroke-width="3" transform="rotate(8 66 59)"/>
    <g transform="rotate(-7 66 63)">
      <rect x="25" y="25" width="78" height="70" rx="12" fill="#d9f8ff" stroke="#ffffff" stroke-width="4"/>
      <rect x="33" y="34" width="62" height="39" rx="4" fill="#91dafc"/>
      <path d="M33 83 55 57l18 26z" fill="#78d85d"/>
      <path d="M56 83 84 48l13 35z" fill="#25a35e"/>
      <path d="M30 91c21 5 47 5 68 0" fill="none" stroke="#1687d0" stroke-opacity=".42" stroke-width="5" stroke-linecap="round"/>
      <path d="M34 38c17-8 35-8 58 0" fill="none" stroke="#ffffff" stroke-opacity=".50" stroke-width="5" stroke-linecap="round"/>
    </g>
    <ellipse cx="64" cy="102" rx="42" ry="7" fill="#117dc2" opacity=".16"/>
  </g>

  <g transform="translate(256 0)"><use href="#plate-green"/><rect x="31" y="27" width="66" height="66" rx="14" fill="#58c83d" filter="url(#softShadow)"/><rect x="36" y="31" width="24" height="14" rx="7" fill="#fff" opacity=".35"/><use href="#download" x="40" y="36" width="48" height="48" color="#fff"/></g>
  <g transform="translate(384 0)"><rect x="31" y="27" width="66" height="66" rx="14" fill="#2d9fea" filter="url(#softShadow)"/><rect x="36" y="31" width="24" height="14" rx="7" fill="#fff" opacity=".35"/><use href="#code" x="39" y="38" width="50" height="50" color="#fff"/></g>
  <g transform="translate(512 0)"><circle cx="64" cy="60" r="36" fill="#28aeea" filter="url(#softShadow)"/><circle cx="51" cy="46" r="14" fill="#fff" opacity=".28"/><use href="#send" x="39" y="36" width="52" height="52" color="#fff"/></g>
  <g transform="translate(640 0)"><rect x="31" y="27" width="66" height="66" rx="14" fill="#3a8ff2" filter="url(#softShadow)"/><rect x="36" y="31" width="24" height="14" rx="7" fill="#fff" opacity=".35"/><use href="#title" x="39" y="36" width="50" height="50" color="#fff"/></g>
  <g transform="translate(768 0)"><rect x="31" y="27" width="66" height="66" rx="14" fill="#2e9fe9" filter="url(#softShadow)"/><rect x="36" y="31" width="24" height="14" rx="7" fill="#fff" opacity=".35"/><use href="#file" x="40" y="35" width="48" height="52" color="#fff"/></g>
  <g transform="translate(896 0)"><rect x="31" y="27" width="66" height="66" rx="14" fill="#318fb3" filter="url(#softShadow)"/><rect x="36" y="31" width="24" height="14" rx="7" fill="#fff" opacity=".35"/><use href="#file" x="40" y="35" width="48" height="52" color="#fff"/></g>

  <g transform="translate(0 128)"><rect x="31" y="27" width="66" height="66" rx="14" fill="#e93632" filter="url(#softShadow)"/><rect x="36" y="31" width="24" height="14" rx="7" fill="#fff" opacity=".35"/><use href="#play" x="42" y="38" width="48" height="48" color="#fff"/></g>
  <g transform="translate(128 128)"><rect x="31" y="27" width="66" height="66" rx="14" fill="#63c83c" filter="url(#softShadow)"/><rect x="36" y="31" width="24" height="14" rx="7" fill="#fff" opacity=".35"/><use href="#message" x="39" y="37" width="50" height="50" color="#fff"/></g>
  <g transform="translate(256 128)"><circle cx="64" cy="60" r="36" fill="#2aa2e6" filter="url(#softShadow)"/><circle cx="51" cy="46" r="14" fill="#fff" opacity=".28"/><use href="#globe" x="39" y="35" width="50" height="50" color="#fff"/></g>
  <g transform="translate(384 128)"><circle cx="64" cy="60" r="36" fill="#5cc33a" filter="url(#softShadow)"/><circle cx="51" cy="46" r="14" fill="#fff" opacity=".28"/><use href="#refresh" x="38" y="34" width="52" height="52" color="#fff"/></g>
  <g transform="translate(512 128)"><circle cx="64" cy="60" r="36" fill="#9857d7" filter="url(#softShadow)"/><circle cx="51" cy="46" r="14" fill="#fff" opacity=".28"/><use href="#refresh" x="38" y="34" width="52" height="52" color="#fff"/></g>
  <g transform="translate(640 128)"><rect x="31" y="27" width="66" height="66" rx="14" fill="#2d9fea" filter="url(#softShadow)"/><rect x="36" y="31" width="24" height="14" rx="7" fill="#fff" opacity=".35"/><use href="#save" x="39" y="35" width="50" height="50" color="#fff"/></g>
  <g transform="translate(768 128)"><rect x="31" y="27" width="66" height="66" rx="14" fill="#2d9fea" filter="url(#softShadow)"/><rect x="36" y="31" width="24" height="14" rx="7" fill="#fff" opacity=".35"/><use href="#file" x="40" y="35" width="48" height="52" color="#fff"/></g>
  <g transform="translate(896 128)"><rect x="31" y="27" width="66" height="66" rx="14" fill="#f2ad2c" filter="url(#softShadow)"/><path d="M71 36 45 62l26 27" fill="none" stroke="#1f3038" stroke-width="8" stroke-linecap="round" stroke-linejoin="round"/><path d="M61 46 82 33M62 80h22" fill="none" stroke="#fff" stroke-width="6" stroke-linecap="round"/></g>

  <g transform="translate(0 256)"><rect x="31" y="27" width="66" height="66" rx="14" fill="#f66f29" filter="url(#softShadow)"/><rect x="36" y="31" width="24" height="14" rx="7" fill="#fff" opacity=".35"/><use href="#bookmark" x="39" y="34" width="50" height="54" color="#fff"/></g>
  <g transform="translate(128 256)"><rect x="31" y="27" width="66" height="66" rx="14" fill="#3da4f2" filter="url(#softShadow)"/><rect x="36" y="31" width="24" height="14" rx="7" fill="#fff" opacity=".35"/><use href="#calendar" x="39" y="35" width="50" height="50" color="#fff"/></g>
  <g transform="translate(256 256)"><rect x="31" y="27" width="66" height="66" rx="14" fill="#72cf39" filter="url(#softShadow)"/><rect x="36" y="31" width="24" height="14" rx="7" fill="#fff" opacity=".35"/><use href="#bars" x="39" y="35" width="50" height="50" color="#fff"/></g>
  <g transform="translate(384 256)"><circle cx="64" cy="60" r="36" fill="#2aa2e6" filter="url(#softShadow)"/><circle cx="51" cy="46" r="14" fill="#fff" opacity=".28"/><use href="#globe" x="39" y="35" width="50" height="50" color="#fff"/></g>
  <g transform="translate(512 256)"><circle cx="64" cy="60" r="40" fill="#2b8ce5" filter="url(#softShadow)"/><circle cx="50" cy="43" r="16" fill="#fff" opacity=".28"/><use href="#download" x="38" y="34" width="52" height="52" color="#fff"/></g>
  <g transform="translate(640 256)"><circle cx="64" cy="60" r="40" fill="#438bd7" filter="url(#softShadow)"/><circle cx="50" cy="43" r="16" fill="#fff" opacity=".28"/><use href="#pencil" x="38" y="34" width="52" height="52" color="#fff"/></g>
  <g transform="translate(768 256)"><circle cx="64" cy="60" r="40" fill="#2aa5c6" filter="url(#softShadow)"/><circle cx="50" cy="43" r="16" fill="#fff" opacity=".28"/><use href="#code" x="38" y="34" width="52" height="52" color="#fff"/></g>
  <g transform="translate(896 256)"><circle cx="64" cy="60" r="40" fill="#f5ad18" filter="url(#softShadow)"/><circle cx="50" cy="43" r="16" fill="#fff" opacity=".28"/><use href="#search" x="38" y="34" width="52" height="52" color="#fff"/></g>

  <g transform="translate(0 384)"><circle cx="64" cy="60" r="40" fill="#8fa9bb" filter="url(#softShadow)"/><circle cx="50" cy="43" r="16" fill="#fff" opacity=".28"/><use href="#send" x="38" y="34" width="52" height="52" color="#fff"/></g>
  <g transform="translate(128 384)"><circle cx="48" cy="50" r="17" fill="#ffc433"/><path d="M39 76h42c8 0 14-5 14-13s-6-13-14-13c-3-10-13-15-23-11-6 2-10 7-12 13-8 0-15 5-15 12 0 7 5 12 8 12Z" fill="#dff7ff" stroke="#8fd2f3" stroke-width="3"/><circle cx="48" cy="50" r="24" fill="none" stroke="#ffc433" stroke-width="4" stroke-dasharray="2 8"/></g>
  <g transform="translate(256 384)"><rect x="31" y="27" width="66" height="66" rx="14" fill="#2d9fea" filter="url(#softShadow)"/><rect x="36" y="31" width="24" height="14" rx="7" fill="#fff" opacity=".35"/><use href="#file" x="40" y="35" width="48" height="52" color="#fff"/></g>
  <g transform="translate(384 384)"><circle cx="64" cy="60" r="34" fill="#ee5f62" filter="url(#softShadow)"/><circle cx="51" cy="46" r="13" fill="#fff" opacity=".25"/><use href="#x" x="40" y="36" width="48" height="48" color="#fff"/></g>
  <g transform="translate(512 384)"><circle cx="64" cy="60" r="34" fill="#2d9fea" filter="url(#softShadow)"/><circle cx="51" cy="46" r="13" fill="#fff" opacity=".25"/><use href="#file" x="40" y="36" width="48" height="48" color="#fff"/></g>
</svg>
